<?xml version="1.0" encoding="UTF-8"?>
<svg id="Layer_1" data-name="Layer 1" xmlns="http://www.w3.org/2000/svg" viewBox="0 0 1496.16 432.52">
  <defs>
    <style>
      .cls-1 {
        fill: #242262;
      }

      .cls-1, .cls-2, .cls-3, .cls-4 {
        stroke-width: 0px;
      }

      .cls-2 {
        fill: #13afd7;
      }

      .cls-3 {
        fill: #1276bc;
      }

      .cls-4 {
        fill: #232162;
      }
    </style>
  </defs>
  <g>
    <g>
      <path class="cls-4" d="m565.68,100.39c6.22,6.81,9.33,17.87,9.33,33.18s-3.09,26.26-9.27,33.12c-6.18,6.85-16.92,10.28-32.22,10.28-9.72,0-19.89-.72-30.49-2.15v-82.49c10.28-1.43,20.32-2.15,30.13-2.15,15.46,0,26.3,3.41,32.52,10.22Zm-32.28,59.36c7.49,0,12.61-1.85,15.36-5.56,2.75-3.71,4.12-10.58,4.12-20.62s-1.38-16.94-4.12-20.68c-2.75-3.75-7.87-5.58-15.36-5.5h-9.09v52.36h9.09Z"/>
      <path class="cls-4" d="m657.61,174.81c-2.47.8-6.26,1.2-11.36,1.2s-9.01-.4-11.72-1.2l-5.38-19.97h-25.94l-5.26,19.97c-2.63.72-6.52,1.08-11.66,1.08s-8.95-.36-11.42-1.08l26.66-82.49c3.27-.8,8.15-1.2,14.65-1.2s11.38.4,14.65,1.2l26.78,82.49Zm-40.89-66.23h-1.2l-8.49,31.8h18.17l-8.49-31.8Z"/>
      <path class="cls-4" d="m715.95,92.32c.56,1.83.84,4.66.84,8.49s-.28,6.69-.84,8.61h-22.6v64.44c-2.47.8-6.02,1.2-10.64,1.2s-8.17-.4-10.64-1.2v-64.44h-22.48c-.72-1.91-1.08-4.78-1.08-8.61s.36-6.66,1.08-8.49h66.35Z"/>
      <path class="cls-4" d="m790.32,174.81c-2.47.8-6.26,1.2-11.36,1.2s-9.01-.4-11.72-1.2l-5.38-19.97h-25.94l-5.26,19.97c-2.63.72-6.52,1.08-11.66,1.08s-8.95-.36-11.42-1.08l26.66-82.49c3.27-.8,8.15-1.2,14.65-1.2s11.38.4,14.65,1.2l26.78,82.49Zm-40.89-66.23h-1.2l-8.49,31.8h18.17l-8.49-31.8Z"/>
      <path class="cls-4" d="m872.93,96.08c6.22,3.95,9.33,11.34,9.33,22.18,0,9.72-2.83,16.72-8.49,20.98-5.66,4.26-14.9,6.4-27.74,6.4h-8.49v29.17c-2.39.72-5.92,1.08-10.58,1.08s-8.23-.36-10.7-1.08v-82.49c8.21-1.43,17.49-2.15,27.86-2.15,12.99,0,22.6,1.97,28.81,5.92Zm-26.9,35.81c5.5,0,9.15-.84,10.94-2.51,1.79-1.67,2.69-4.94,2.69-9.8s-.9-8.23-2.69-9.86c-1.79-1.63-5.44-2.45-10.94-2.45h-8.49v24.63h8.49Z"/>
      <path class="cls-4" d="m958.41,174.81c-3.11.8-6.97,1.2-11.6,1.2s-8.53-.4-11.72-1.2l-13.27-30.84h-11.24v30.84c-2.39.72-5.92,1.08-10.58,1.08s-8.23-.36-10.7-1.08v-82.49c8.21-1.43,17.02-2.15,26.42-2.15,13.47,0,23.37,1.95,29.71,5.86s9.5,10.96,9.5,21.16c0,6.06-1.33,10.92-4,14.59-2.67,3.67-6.99,6.3-12.97,7.89v.6c4.38,1.51,7.33,4.38,8.85,8.61l11.6,25.94Zm-39.33-44.59c5.42,0,8.99-.8,10.7-2.39,1.71-1.59,2.57-4.62,2.57-9.09s-.86-7.49-2.57-9.09c-1.71-1.59-5.28-2.39-10.7-2.39h-8.49v22.95h8.49Z"/>
      <path class="cls-4" d="m1026.85,99.73c5.62,6.38,8.47,17.65,8.55,33.83.08,16.18-2.67,27.46-8.25,33.83-5.58,6.38-15.38,9.56-29.41,9.56s-24.07-3.19-29.65-9.56c-5.58-6.38-8.33-17.65-8.25-33.83.08-16.18,2.93-27.46,8.55-33.83,5.62-6.38,15.4-9.56,29.35-9.56s23.49,3.19,29.11,9.56Zm-41.25,12.79c-2.03,3.51-3.13,10.52-3.29,21.04-.16,10.52.78,17.51,2.81,20.98,2.03,3.47,6.24,5.2,12.61,5.2s10.1-1.75,12.13-5.26c2.03-3.51,3.05-10.48,3.05-20.92s-1.02-17.4-3.05-20.86c-2.03-3.47-6.08-5.24-12.13-5.32s-10.1,1.63-12.13,5.14Z"/>
      <path class="cls-4" d="m1102.71,92.32c.56,1.83.84,4.66.84,8.49s-.28,6.69-.84,8.61h-22.6v64.44c-2.47.8-6.02,1.2-10.64,1.2s-8.17-.4-10.64-1.2v-64.44h-22.48c-.72-1.91-1.08-4.78-1.08-8.61s.36-6.66,1.08-8.49h66.35Z"/>
      <path class="cls-4" d="m1165.24,157.71c.64,1.91.96,4.78.96,8.61s-.32,6.66-.96,8.49h-56.55v-82.49h56.55c.64,1.83.96,4.66.96,8.49s-.32,6.69-.96,8.61h-35.27v16.14h28.93c.72,1.51,1.08,3.77,1.08,6.75s-.36,5.28-1.08,6.87h-28.93v18.53h35.27Z"/>
      <path class="cls-4" d="m1221.49,91.18c4.98.68,8.55,1.38,10.7,2.09.56,2.31.58,5.36.06,9.15s-1.37,6.4-2.57,7.83c-9.01-1.35-15.82-2.03-20.44-2.03-6.77,0-11.28,1.69-13.51,5.08-2.23,3.39-3.31,10.14-3.23,20.26.08,10.04,1.24,16.78,3.47,20.2,2.23,3.43,6.7,5.14,13.39,5.14,3.27,0,7.35-.24,12.25-.72,4.9-.48,8.07-.96,9.5-1.43,1.28,1.43,2.17,4.2,2.69,8.31.52,4.1.42,6.99-.3,8.67-1.99.88-5.44,1.63-10.34,2.27-4.9.64-9.86.96-14.88.96-14.51,0-24.51-3.29-30.01-9.86-5.5-6.58-8.25-17.79-8.25-33.65s2.67-26.64,8.01-33.3c5.34-6.66,14.98-9.98,28.93-9.98,4.7,0,9.54.34,14.53,1.02Z"/>
      <path class="cls-4" d="m1302.24,92.32c.56,1.83.84,4.66.84,8.49s-.28,6.69-.84,8.61h-22.6v64.44c-2.47.8-6.02,1.2-10.64,1.2s-8.17-.4-10.64-1.2v-64.44h-22.48c-.72-1.91-1.08-4.78-1.08-8.61s.36-6.66,1.08-8.49h66.35Z"/>
      <path class="cls-4" d="m1329.5,174.81c-2.39.72-5.92,1.08-10.58,1.08s-8.23-.36-10.7-1.08v-82.49c2.47-.72,6.04-1.08,10.7-1.08s8.19.36,10.58,1.08v82.49Z"/>
      <path class="cls-4" d="m1404.76,99.73c5.62,6.38,8.47,17.65,8.55,33.83.08,16.18-2.67,27.46-8.25,33.83-5.58,6.38-15.38,9.56-29.41,9.56s-24.07-3.19-29.65-9.56c-5.58-6.38-8.33-17.65-8.25-33.83.08-16.18,2.93-27.46,8.55-33.83,5.62-6.38,15.4-9.56,29.35-9.56s23.49,3.19,29.11,9.56Zm-41.25,12.79c-2.03,3.51-3.13,10.52-3.29,21.04-.16,10.52.78,17.51,2.81,20.98,2.03,3.47,6.24,5.2,12.61,5.2s10.1-1.75,12.13-5.26c2.03-3.51,3.05-10.48,3.05-20.92s-1.02-17.4-3.05-20.86c-2.03-3.47-6.08-5.24-12.13-5.32-6.06-.08-10.1,1.63-12.13,5.14Z"/>
      <path class="cls-4" d="m1475.95,92.32c2.31-.72,5.7-1.08,10.16-1.08s7.81.36,10.04,1.08v82.49c-4.06.8-8.81,1.2-14.23,1.2s-10.2-.4-14.35-1.2l-19.37-42.8-5.98-18.17h-.84v60.97c-2.39.72-5.78,1.08-10.16,1.08s-7.77-.36-10.16-1.08v-82.49c4.14-.72,8.93-1.08,14.35-1.08s10.2.36,14.35,1.08l19.37,43.28,5.98,17.69h.84v-60.97Z"/>
    </g>
    <g>
      <path class="cls-4" d="m681.64,232.49c4.98.68,8.55,1.38,10.7,2.09.56,2.31.58,5.36.06,9.15s-1.37,6.4-2.57,7.83c-9.01-1.35-15.82-2.03-20.44-2.03-6.77,0-11.28,1.69-13.51,5.08-2.23,3.39-3.31,10.14-3.23,20.26.08,10.04,1.24,16.78,3.47,20.2,2.23,3.43,6.7,5.14,13.39,5.14,3.27,0,7.35-.24,12.25-.72,4.9-.48,8.07-.96,9.5-1.43,1.28,1.43,2.17,4.2,2.69,8.31.52,4.1.42,6.99-.3,8.67-1.99.88-5.44,1.63-10.34,2.27-4.9.64-9.86.96-14.88.96-14.51,0-24.51-3.29-30.01-9.86-5.5-6.58-8.25-17.79-8.25-33.65s2.67-26.64,8.01-33.3c5.34-6.66,14.98-9.98,28.93-9.98,4.7,0,9.54.34,14.53,1.02Z"/>
      <path class="cls-4" d="m763.78,241.04c5.62,6.38,8.47,17.65,8.55,33.83.08,16.18-2.67,27.46-8.25,33.83-5.58,6.38-15.38,9.56-29.41,9.56s-24.07-3.19-29.65-9.56c-5.58-6.38-8.33-17.65-8.25-33.83.08-16.18,2.93-27.46,8.55-33.83,5.62-6.38,15.4-9.56,29.35-9.56s23.49,3.19,29.11,9.56Zm-41.25,12.79c-2.03,3.51-3.13,10.52-3.29,21.04-.16,10.52.78,17.51,2.81,20.98,2.03,3.47,6.24,5.2,12.61,5.2s10.1-1.75,12.13-5.26c2.03-3.51,3.05-10.48,3.05-20.92s-1.02-17.4-3.05-20.86c-2.03-3.47-6.08-5.24-12.13-5.32s-10.1,1.63-12.13,5.14Z"/>
      <path class="cls-4" d="m876.45,316.12c-2.79.8-6.12,1.2-9.98,1.2s-7.15-.4-9.86-1.2l-1.31-65.63h-1.08l-3.95,20.8-11.6,44.83c-3.03.8-6.71,1.2-11.06,1.2s-7.99-.4-10.94-1.2l-11.72-45.43-3.83-20.2h-1.08l-1.31,65.63c-2.71.8-6.02,1.2-9.92,1.2s-7.21-.4-9.92-1.2l2.15-82.49c4.3-.8,9.68-1.2,16.14-1.2s11.88.4,16.26,1.2l11,47.22,2.87,17.22h.72l2.75-17.22,11.12-47.22c4.3-.8,9.7-1.2,16.2-1.2s11.86.4,16.08,1.2l2.27,82.49Z"/>
      <path class="cls-4" d="m983.22,316.12c-2.79.8-6.12,1.2-9.98,1.2s-7.15-.4-9.86-1.2l-1.31-65.63h-1.08l-3.95,20.8-11.6,44.83c-3.03.8-6.71,1.2-11.06,1.2s-7.99-.4-10.94-1.2l-11.72-45.43-3.83-20.2h-1.08l-1.31,65.63c-2.71.8-6.02,1.2-9.92,1.2s-7.21-.4-9.92-1.2l2.15-82.49c4.3-.8,9.68-1.2,16.14-1.2s11.88.4,16.26,1.2l11,47.22,2.87,17.22h.72l2.75-17.22,11.12-47.22c4.3-.8,9.7-1.2,16.2-1.2s11.86.4,16.08,1.2l2.27,82.49Z"/>
      <path class="cls-4" d="m1014.9,316.12c-2.39.72-5.92,1.08-10.58,1.08s-8.23-.36-10.7-1.08v-82.49c2.47-.72,6.04-1.08,10.7-1.08s8.19.36,10.58,1.08v82.49Z"/>
      <path class="cls-4" d="m1072.1,232.61c6.18.76,10.1,1.37,11.78,1.85.96,5.98.24,11.44-2.15,16.38-7.97-1.51-16.7-2.27-26.18-2.27-3.75,0-6.4.42-7.95,1.26s-2.33,2.73-2.33,5.68c0,2.31.56,4.02,1.67,5.14s3.07,2.15,5.86,3.11l14.94,5.14c7.09,2.63,12.21,5.76,15.36,9.38,3.15,3.63,4.72,9.03,4.72,16.2,0,4.94-.7,8.99-2.09,12.13-1.39,3.15-3.65,5.56-6.75,7.23-3.11,1.67-6.6,2.83-10.46,3.47-3.87.64-8.75.96-14.65.96-9.33,0-19.17-.96-29.53-2.87-1.04-5.9-.44-11.36,1.79-16.38,9.64,1.67,19.49,2.35,29.53,2.03,3.51-.08,6.06-.58,7.65-1.49s2.39-2.93,2.39-6.04c0-2.15-.46-3.75-1.38-4.78s-2.57-1.95-4.96-2.75l-16.02-5.5c-6.77-2.39-11.84-5.58-15.18-9.56-3.35-3.98-5.02-9.21-5.02-15.66,0-9.09,2.53-15.32,7.59-18.71,5.06-3.39,13.13-5.08,24.21-5.08,5.26,0,10.98.38,17.16,1.14Z"/>
      <path class="cls-4" d="m1140.73,232.61c6.18.76,10.1,1.37,11.78,1.85.96,5.98.24,11.44-2.15,16.38-7.97-1.51-16.7-2.27-26.18-2.27-3.75,0-6.4.42-7.95,1.26s-2.33,2.73-2.33,5.68c0,2.31.56,4.02,1.67,5.14s3.07,2.15,5.86,3.11l14.94,5.14c7.09,2.63,12.21,5.76,15.36,9.38,3.15,3.63,4.72,9.03,4.72,16.2,0,4.94-.7,8.99-2.09,12.13-1.39,3.15-3.65,5.56-6.75,7.23-3.11,1.67-6.6,2.83-10.46,3.47-3.87.64-8.75.96-14.65.96-9.33,0-19.17-.96-29.53-2.87-1.04-5.9-.44-11.36,1.79-16.38,9.64,1.67,19.49,2.35,29.53,2.03,3.51-.08,6.06-.58,7.65-1.49s2.39-2.93,2.39-6.04c0-2.15-.46-3.75-1.38-4.78s-2.57-1.95-4.96-2.75l-16.02-5.5c-6.77-2.39-11.84-5.58-15.18-9.56-3.35-3.98-5.02-9.21-5.02-15.66,0-9.09,2.53-15.32,7.59-18.71,5.06-3.39,13.13-5.08,24.21-5.08,5.26,0,10.98.38,17.16,1.14Z"/>
      <path class="cls-4" d="m1185.14,316.12c-2.39.72-5.92,1.08-10.58,1.08s-8.23-.36-10.7-1.08v-82.49c2.47-.72,6.04-1.08,10.7-1.08s8.19.36,10.58,1.08v82.49Z"/>
      <path class="cls-4" d="m1260.4,241.04c5.62,6.38,8.47,17.65,8.55,33.83.08,16.18-2.67,27.46-8.25,33.83-5.58,6.38-15.38,9.56-29.41,9.56s-24.07-3.19-29.65-9.56c-5.58-6.38-8.33-17.65-8.25-33.83.08-16.18,2.93-27.46,8.55-33.83,5.62-6.38,15.4-9.56,29.35-9.56s23.49,3.19,29.11,9.56Zm-41.25,12.79c-2.03,3.51-3.13,10.52-3.29,21.04-.16,10.52.78,17.51,2.81,20.98,2.03,3.47,6.24,5.2,12.61,5.2s10.1-1.75,12.13-5.26c2.03-3.51,3.05-10.48,3.05-20.92s-1.02-17.4-3.05-20.86c-2.03-3.47-6.08-5.24-12.13-5.32-6.06-.08-10.1,1.63-12.13,5.14Z"/>
      <path class="cls-4" d="m1331.59,233.63c2.31-.72,5.7-1.08,10.16-1.08s7.81.36,10.04,1.08v82.49c-4.06.8-8.81,1.2-14.23,1.2s-10.2-.4-14.35-1.2l-19.37-42.8-5.98-18.17h-.84v60.97c-2.39.72-5.78,1.08-10.16,1.08s-7.77-.36-10.16-1.08v-82.49c4.14-.72,8.93-1.08,14.35-1.08s10.2.36,14.35,1.08l19.37,43.28,5.98,17.69h.84v-60.97Z"/>
    </g>
  </g>
  <g>
    <g>
      <path class="cls-2" d="m333.35,367.58c-1.31,6.13-6.59,9.25-10.74,12.88-14.8,12.95-31.24,23.37-49.68,30.59-7.09,2.78-13.86,6.43-21.26,8.41-14.68,3.91-29.19,8.31-44.3,10.65-12.05,1.87-24.04,2.3-36.12,2.32-1.17,0-2.55.36-3.41-.36-5.12-4.31-12.34-4.99-17.06-9.86-1.82-1.88-4.37-2.27-6.34-3.76t-.01-.02h-.01c-9.6-5.71-17.37-13.74-25.82-20.86-21.1-17.81-39.54-38.3-56.26-60.17-21.15-27.67-38.31-57.74-49.5-90.9-3.89-11.51-8.36-22.95-9.12-35.3-5.39-33.67-4.52-67.33.06-100.99h-.01c1.65-5.56,1.67-11.5,3.94-16.92.07-.97.15-1.93.23-2.9,2.43-7,4.77-14.02,6.62-21.2l.02-.08c5.05-3.09,7.29-2.74,8.12,1.76.13.7.22,1.5.29,2.4.08.99.24,2.04-.01,2.98-.2.72-.37,1.44-.52,2.16-2.69,12.59,1.29,24.74,2.75,37.1.93,7.92,3.02,15.55,4.09,23.41.69,5.04,2.47,10.02,4.24,14.77,6.55,17.67,13.12,35.43,22.52,51.81,4.97,8.66,9.93,17.37,15.83,25.6,4.85,6.76,10.84,12.9,14.39,20.73,2.26,4.99,6.82,8.57,10.69,12.39,15.25,15.05,32.17,28.14,49.74,40.31,9.78,6.78,20.43,12.28,31.01,17.83,6.86,3.61,13.98,6.67,20.8,10.35.59.39,1.18.74,1.79,1.07h0c.35.21.71.4,1.07.58,5.23,2.67,11.02,3.94,16.43,6.15,5.65,2.32,11.12,5.32,17.19,6.47,8.75,1.66,16.85,5.61,25.84,6.61,5.13.57,10.4,2.45,15.09,4.35,5.93,2.41,11.83,3.22,17.82,3.37.01.01.02.01.03,0,1.43.04,2.86.04,4.3.01h.01c1.05-.02,2.1-.05,3.15-.09,3.46.57,7.03.61,10.33,1.93.08.03.15.06.23.09.15.02.29.03.44.06,4.63.62,8.97,2.94,13.81,2.33h.02c2.58-.26,4.94.4,7.09,1.82l.18.12Z"/>
      <path class="cls-1" d="m432.4,114.4c-.06,0-.13.03-.2.03,0-.19,0-.37-.02-.56h.01c-5-5.52-10.66-10.13-17.32-13.51-5.25-2.65-10.47-5.37-15.7-8.06-.7-.44-1.36-.97-2.1-1.31-24.41-11.31-49.21-21.11-75.88-26.35-23.96-4.71-47.88-5.04-71.85-2.86-21.95,1.99-43.21,7.71-64.06,15.17-33.97,12.16-64.9,29.78-93.89,50.95-9.59,7-18.64,14.73-27.94,22.12-.14.22-.28.44-.43.66-.45.12-.88.29-1.28.5h-.01c-2.22,1.09-3.82,3.2-5.83,4.63-3.76,2.67-4.74,3.43-7.02,2.18-.35-.18-.72-.42-1.14-.7-.43-.68-.88-1.34-1.3-2.02-9.54-12.18-14.73-26.35-18.85-41.01.02-5.8-2.91-11.06-3.08-16.83-.82-11.34-.93-22.68-.6-34.04,1.44-5.96.48-12.25,2.51-18.14.06-.18-.65-.63-.99-.96,6.58-5.16,14.54-7.65,22.08-10.77,13.67-5.64,27.5-10.98,41.57-15.52,11.59-3.74,23.41-6.84,35.28-9.71,9.85-2.37,19.86-3.61,29.74-5.66,6.14-1.27,12.49-1.85,18.77-2.04,20.76-.65,41.55-.92,62.3.05,7.37.34,14.72,1.65,22.07,2.86,8.82,1.45,17.29,4,25.92,6,13.32,3.08,25.98,8.19,38.49,13.63,14.05,6.11,27.45,13.5,40.24,21.88,10.64,6.98,20.5,15.03,30.39,23.09,14.9,12.16,27.14,26.64,39.07,41.5.8,1,1.7,2.06,1.59,3.53.37.83.03,1.14-.54,1.27Z"/>
      <path class="cls-3" d="m432.36,126.12c.91,20.12-2.75,39.78-6.02,59.47-.4,2.44-.19,4.99-1.26,7.29-.24.38-.33.75-.35,1.13-.02.14-.01.29,0,.44.11,1.29.9,2.6.25,3.89t-.01.02h0c-.05.5-.1.99-.15,1.47h0s0,.01,0,.02c-.82,1.59-1.6,3.13-2.06,4.96-3.94,15.7-8.18,31.27-13.97,46.48-4.37,11.47-9.31,22.63-14.54,33.67-9.38,19.78-20.61,38.41-34.12,55.73-6.87,8.82-14.19,17.14-22.13,24.95l-.33.33s-.09.08-.13.12c-.15-.21-.29-.43-.43-.65-1.29.6-2.06,2.18-3.72,2.04,0-.07.03-.15.04-.22-1.64-2.95-4.41-2.79-7.19-2.62-1.15.23-2.29.31-3.4.27h-.02c-3.53-.8-7.07-1.59-10.6-2.39-5.16-1.86-10.73-1.95-15.88-3.91-3.77-1.43-4.26-3.66-1.98-6.42,9.9-11.95,17.39-25.32,23.48-39.49,5.65-13.16,11.03-26.38,14.61-40.37,1.92-7.5,3.43-15.1,5.34-22.59,2.39-9.42,4.25-19.1,5.04-28.77,1.12-13.56,1.31-27.21,1.43-40.83.16-17.43.07-34.9-2.21-52.22-2.1-15.88-4.71-31.69-7.3-47.5-.61-3.72.26-4.49,3.82-3.61,5.45,1.35,10.97,2.4,16.48,3.41,11.16,2.06,22.24,4.32,32.83,8.62,2.79,1.14,5.49,2.83,8.52,3.34t.02.01c.5.23,1,.47,1.5.71,11.74,6.58,24.43,11.63,34.02,21.57.09-.01.19-.02.27-.04,0-.19,0-.37-.02-.56h.01c.07.18.14.36.21.53,1.34,3.89-.22,7.82-.04,11.72Z"/>
    </g>
    <g>
      <g>
        <path class="cls-4" d="m175.61,188.82c5.1,5.59,7.65,14.65,7.65,27.2s-2.53,21.53-7.6,27.15-13.87,8.43-26.42,8.43c-7.97,0-16.3-.59-25-1.76v-67.64c8.43-1.18,16.66-1.76,24.7-1.76,12.68,0,21.56,2.79,26.66,8.38Zm-26.47,48.67c6.14,0,10.34-1.52,12.6-4.56,2.25-3.04,3.38-8.68,3.38-16.91s-1.13-13.89-3.38-16.96c-2.25-3.07-6.45-4.57-12.6-4.51h-7.45v42.93h7.45Z"/>
        <path class="cls-4" d="m241.48,185.29c5.1,3.23,7.65,9.3,7.65,18.18,0,7.97-2.32,13.71-6.96,17.2s-12.22,5.24-22.74,5.24h-6.96v23.92c-1.96.59-4.85.88-8.68.88s-6.75-.29-8.77-.88v-67.64c6.73-1.18,14.34-1.76,22.84-1.76,10.65,0,18.53,1.62,23.62,4.85Zm-22.06,29.36c4.51,0,7.5-.69,8.97-2.06,1.47-1.37,2.21-4.05,2.21-8.04s-.74-6.75-2.21-8.09c-1.47-1.34-4.46-2.01-8.97-2.01h-6.96v20.19h6.96Z"/>
        <path class="cls-4" d="m298.48,181.27c4.08.56,7.01,1.13,8.77,1.72.46,1.9.47,4.39.05,7.5s-1.13,5.24-2.11,6.42c-7.38-1.11-12.97-1.67-16.76-1.67-5.55,0-9.25,1.39-11.08,4.17-1.83,2.78-2.71,8.32-2.65,16.61.07,8.23,1.01,13.76,2.84,16.57s5.49,4.21,10.98,4.21c2.68,0,6.03-.2,10.05-.59s6.62-.78,7.79-1.18c1.05,1.18,1.78,3.45,2.21,6.81.42,3.37.34,5.73-.25,7.11-1.63.72-4.46,1.34-8.48,1.86-4.02.52-8.09.78-12.2.78-11.89,0-20.09-2.7-24.6-8.09-4.51-5.39-6.76-14.59-6.76-27.59s2.19-21.84,6.57-27.3c4.38-5.46,12.29-8.19,23.72-8.19,3.86,0,7.83.28,11.91.83Z"/>
      </g>
      <path class="cls-4" d="m224.85,119.65c-.65,0-1.35-.5-1.55-1.12l-6.39-19.67c-.2-.62-.53-.62-.73,0l-6.39,19.67c-.2.62-.9,1.12-1.55,1.12h-20.68c-.65,0-.75.31-.23.7l16.73,12.15c.53.38.79,1.2.59,1.82l-6.39,19.67c-.2.62.06.81.59.43l16.73-12.15c.53-.38,1.39-.38,1.91,0l16.73,12.15c.53.38.79.19.59-.43l-6.39-19.67c-.2-.62.06-1.44.59-1.82l16.73-12.15c.53-.38.43-.7-.23-.7h-20.68Z"/>
    </g>
  </g>
</svg>